<?xml version="1.0" standalone="no"?><!DOCTYPE svg PUBLIC "-//W3C//DTD SVG 1.1//EN" "http://www.w3.org/Graphics/SVG/1.1/DTD/svg11.dtd"><svg t="1537604130992" class="icon" style="" viewBox="0 0 1024 1024" version="1.1" xmlns="http://www.w3.org/2000/svg" p-id="9970" xmlns:xlink="http://www.w3.org/1999/xlink" width="200" height="200"><defs><style type="text/css"></style></defs><path d="M661.186207 417.544828c-33.121103-83.756138-130.08331-144.41931-244.70069-144.419311-142.018207 0-257.165241 92.972138-257.165241 207.695449 0 72.174345 45.620966 135.732966 114.72331 172.950068 23.410759 12.605793-26.800552 64.406069-26.800552 64.406069s156.530759-29.66069 169.242483-29.660689c30.013793 0 58.756414-4.378483 85.556966-11.970207-27.224276-28.601379-37.993931-59.144828-37.993931-95.126069 0-90.782897 86.404414-154.624 197.137655-163.87531z" fill="#666666" p-id="9971"></path><path d="M689.11669 745.895724c36.087172 0 160.697379 23.340138 160.697379 23.340138s-36.193103-55.966897-25.176276-63.664552c41.242483-28.742621 67.160276-70.479448 67.160276-116.912551 0-86.792828-90.747586-157.131034-202.681379-157.131035-112.075034 0-202.822621 70.373517-202.822621 157.131035-0.03531 86.828138 90.747586 157.236966 202.822621 157.236965z" fill="#666666" p-id="9972"></path></svg>