<?xml version="1.0" standalone="no"?><!DOCTYPE svg PUBLIC "-//W3C//DTD SVG 1.1//EN" "http://www.w3.org/Graphics/SVG/1.1/DTD/svg11.dtd"><svg class="icon" width="200px" height="200.00px" viewBox="0 0 1024 1024" version="1.1" xmlns="http://www.w3.org/2000/svg"><path fill="#333333" d="M796.2 490.7v-7.8c0-66.6-54.8-121.4-121.4-121.4h-145v-50.9c31.3-7.8 58.8-39.2 58.8-74.4 0-43.1-35.3-78.3-78.3-78.3S431.8 193 431.8 236c0 35.3 23.5 66.6 58.8 74.4v50.9h-141c-66.6 0-121.4 54.8-121.4 121.4v7.8c-50.9 7.8-86.2 50.9-86.2 101.9 0 50.9 35.3 90.1 82.3 101.9 3.9 62.7 54.8 113.6 121.4 113.6h329.1c66.6 0 117.5-50.9 121.4-113.6 47-7.8 82.3-50.9 82.3-101.9 3.8-50.8-31.4-93.9-82.3-101.7z m-572 160.6c-23.5-7.8-43.1-31.3-43.1-58.8s19.6-50.9 43.1-62.7v121.5zM472.9 236c0-19.6 15.7-39.2 39.2-39.2 19.6 0 39.2 15.7 39.2 39.2s-15.7 39.2-39.2 39.2c-23.5-3.9-39.2-19.6-39.2-39.2zM757 686.5c0 47-35.3 82.3-82.3 82.3H349.6c-47 0-82.3-35.3-82.3-82.3V482.8c0-47 35.3-82.3 82.3-82.3h329.1c47 0 82.3 35.3 82.3 82.3v203.7h-4z m39.2-35.2V529.9c27.4 7.8 43.1 31.3 43.1 62.7 3.9 27.4-15.7 50.9-43.1 58.7z"  /><path fill="#333333" d="M653.3 482.8c-30.7 0-57.6 26.9-57.6 57.6 0 30.7 26.9 57.6 57.6 57.6s57.6-26.9 57.6-57.6c0-30.7-26.9-57.6-57.6-57.6z m0 76.8c-11.5 0-19.2-7.7-19.2-19.2s7.7-19.2 19.2-19.2 19.2 7.7 19.2 19.2-7.7 19.2-19.2 19.2z m-280.2-76.8c-30.7 0-57.6 26.9-57.6 57.6s26.9 57.6 57.6 57.6 57.6-26.9 57.6-57.6-26.9-57.6-57.6-57.6z m0 76.8c-11.5 0-19.2-7.7-19.2-19.2s7.7-19.2 19.2-19.2 19.2 7.7 19.2 19.2-7.7 19.2-19.2 19.2z m191.9 96H461.4c-11.5 0-19.2 7.7-19.2 19.2s7.7 19.2 19.2 19.2H565c11.5 0 19.2-7.7 19.2-19.2 0-7.7-7.7-19.2-19.2-19.2z"  /></svg>